<?xml version="1.0" encoding="UTF-8"?>
<svg xmlns="http://www.w3.org/2000/svg" xmlns:xlink="http://www.w3.org/1999/xlink" width="600px" height="545px" viewBox="0 0 599 545" version="1.1">
<g id="surface1">
<path style=" stroke:none;fill-rule:nonzero;fill:rgb(30.980392%,27.45098%,89.803922%);fill-opacity:1;" d="M 253.839844 498.449219 C 257.371094 489.351562 259.054688 479.636719 258.792969 469.878906 C 259.328125 442.839844 266.550781 416.351562 279.8125 392.78125 C 293.039062 369.253906 311.898438 349.382812 334.703125 334.957031 C 343.144531 330.425781 350.578125 324.226562 356.558594 316.734375 C 362.539062 309.242188 366.9375 300.613281 369.492188 291.375 C 372.042969 282.128906 372.695312 272.46875 371.40625 262.964844 C 370.117188 253.464844 366.921875 244.320312 362 236.09375 C 355.429688 225.101562 345.972656 216.09375 334.703125 210.097656 C 328.238281 205.609375 322.03125 200.777344 316.113281 195.601562 L 301.285156 181.066406 C 274.109375 152.476562 258.871094 114.578125 258.683594 75.121094 C 258.960938 65.359375 257.285156 55.640625 253.753906 46.539062 C 250.222656 37.441406 244.90625 29.136719 238.117188 22.128906 C 231.355469 15.125 223.257812 9.554688 214.300781 5.753906 C 205.34375 1.953125 195.714844 -0.00390625 185.984375 0 C 176.261719 0.015625 166.640625 1.980469 157.6875 5.78125 C 148.738281 9.582031 140.640625 15.140625 133.871094 22.128906 C 127.09375 29.152344 121.785156 37.457031 118.253906 46.558594 C 114.722656 55.660156 113.039062 65.375 113.304688 75.136719 C 113.464844 87.808594 116.953125 100.210938 123.417969 111.105469 C 129.859375 121.984375 139.058594 130.964844 150.082031 137.140625 C 194.714844 165.40625 225.773438 219.453125 225.773438 272.609375 C 225.664062 311.726562 210.714844 349.339844 183.953125 377.847656 L 150.191406 407.859375 C 139.171875 414.019531 129.96875 422.992188 123.507812 433.894531 C 117.027344 444.773438 113.5625 457.199219 113.398438 469.878906 C 113.121094 479.640625 114.796875 489.355469 118.328125 498.457031 C 121.859375 507.558594 127.175781 515.859375 133.964844 522.871094 C 140.722656 529.875 148.824219 535.441406 157.78125 539.246094 C 166.734375 543.046875 176.367188 545.003906 186.09375 545 C 195.820312 544.988281 205.445312 543.023438 214.398438 539.222656 C 223.355469 535.421875 231.457031 529.863281 238.226562 522.871094 C 245 515.851562 250.308594 507.546875 253.839844 498.449219 Z M 253.839844 498.449219 "/>
<path style=" stroke:none;fill-rule:nonzero;fill:rgb(30.980392%,27.45098%,89.803922%);fill-opacity:1;" d="M 352.433594 115.539062 C 344.429688 103.511719 340.164062 89.363281 340.164062 74.902344 C 340.175781 55.53125 347.84375 36.949219 361.492188 23.21875 C 373.359375 11.269531 389.011719 3.824219 405.765625 2.164062 C 422.515625 0.503906 439.324219 4.726562 453.304688 14.117188 C 465.277344 22.160156 474.601562 33.578125 480.09375 46.925781 C 485.589844 60.285156 487.023438 74.972656 484.21875 89.144531 C 481.414062 103.320312 474.492188 116.347656 464.320312 126.601562 C 454.183594 136.828125 441.226562 143.800781 427.113281 146.625 C 412.996094 149.449219 398.359375 148 385.070312 142.464844 C 371.769531 136.917969 360.410156 127.550781 352.433594 115.539062 Z M 352.433594 115.539062 "/>
<path style=" stroke:none;fill-rule:nonzero;fill:rgb(30.980392%,27.45098%,89.803922%);fill-opacity:1;" d="M 372.492188 409.078125 C 384.453125 401.046875 398.523438 396.761719 412.898438 396.761719 L 412.898438 396.722656 C 422.453125 396.734375 431.914062 398.636719 440.734375 402.3125 C 449.558594 405.992188 457.566406 411.375 464.304688 418.160156 C 476.207031 430.148438 483.613281 445.882812 485.269531 462.703125 C 486.921875 479.527344 482.722656 496.402344 473.378906 510.484375 C 465.402344 522.507812 454.035156 531.894531 440.722656 537.441406 C 427.433594 542.980469 412.796875 544.429688 398.683594 541.605469 C 384.566406 538.78125 371.613281 531.808594 361.476562 521.582031 C 351.300781 511.328125 344.375 498.292969 341.570312 484.117188 C 338.765625 469.941406 340.199219 455.25 345.699219 441.886719 C 351.195312 428.539062 360.519531 417.121094 372.492188 409.078125 Z M 372.492188 409.078125 "/>
<path style=" stroke:none;fill-rule:nonzero;fill:rgb(30.980392%,27.45098%,89.803922%);fill-opacity:1;" d="M 586.734375 231.769531 C 594.71875 243.792969 598.984375 257.917969 598.988281 272.375 C 598.972656 291.75 591.308594 310.335938 577.660156 324.074219 C 570.917969 330.855469 562.910156 336.238281 554.089844 339.917969 C 545.269531 343.597656 535.808594 345.496094 526.253906 345.511719 C 511.863281 345.511719 497.796875 341.222656 485.847656 333.195312 C 473.875 325.148438 464.550781 313.730469 459.058594 300.386719 C 453.558594 287.023438 452.121094 272.332031 454.925781 258.15625 C 457.730469 243.976562 464.65625 230.945312 474.832031 220.6875 C 484.96875 210.460938 497.929688 203.488281 512.046875 200.660156 C 526.167969 197.835938 540.804688 199.285156 554.097656 204.828125 C 567.402344 210.378906 578.761719 219.753906 586.734375 231.769531 Z M 586.734375 231.769531 "/>
<path style=" stroke:none;fill-rule:nonzero;fill:rgb(30.980392%,27.45098%,89.803922%);fill-opacity:1;" d="M 32.3125 211.585938 C 44.277344 203.558594 58.324219 199.269531 72.71875 199.269531 C 82.273438 199.289062 91.730469 201.195312 100.546875 204.875 C 109.363281 208.558594 117.371094 213.945312 124.105469 220.726562 C 136.007812 232.710938 143.410156 248.4375 145.0625 265.25 C 146.714844 282.066406 142.519531 298.9375 133.183594 313.011719 C 125.207031 325.027344 113.847656 334.402344 100.546875 339.953125 C 87.253906 345.464844 72.621094 346.898438 58.511719 344.074219 C 44.402344 341.25 31.449219 334.296875 21.296875 324.09375 C 11.125 313.839844 4.203125 300.808594 1.398438 286.636719 C -1.40625 272.460938 0.0273438 257.777344 5.523438 244.414062 C 11.015625 231.0625 20.339844 219.636719 32.3125 211.585938 Z M 32.3125 211.585938 "/>
</g>
</svg>
